<svg width="50" height="50" fill="none" xmlns="http://www.w3.org/2000/svg"><rect x="14.745" width="49.109" height="20.604" rx="10" transform="rotate(45.697 14.745 0)" fill="#56CCF2"/><circle cx="25.5" cy="24.5" r="20.5" fill="#377DFF"/><path d="M10 21a1 1 0 0 1 1-1h29a1 1 0 0 1 1 1v9a1 1 0 0 1-1 1H11a1 1 0 0 1-1-1v-9Z" fill="#fff"/><path d="M10.228 20.25a1 1 0 0 1 1.271-.621l28.818 9.916a1 1 0 0 1 .62 1.27l-.021.062a1 1 0 0 1-1.271.62l-28.818-9.916a1 1 0 0 1-.62-1.27l.021-.062Z" fill="#333"/></svg>