<svg width="20" height="20" fill="none" xmlns="http://www.w3.org/2000/svg"><path d="M13.492 1.667H6.508c-3.033 0-4.841 1.808-4.841 4.841v6.975c0 3.042 1.808 4.85 4.841 4.85h6.975c3.034 0 4.842-1.808 4.842-4.841V6.508c.008-3.033-1.8-4.841-4.833-4.841Zm-7.1 2.916a.63.63 0 0 1 .625-.625.63.63 0 0 1 .625.625v3.25a.63.63 0 0 1-.625.625.63.63 0 0 1-.625-.625v-3.25Zm1.6 9.084c-.2.095-.35.286-.35.509v1.24a.63.63 0 0 1-.625.626.63.63 0 0 1-.625-.625v-1.241c0-.223-.15-.414-.351-.51a2.26 2.26 0 0 1-1.291-2.041A2.276 2.276 0 0 1 7.017 9.35a2.278 2.278 0 0 1 2.275 2.275c0 .901-.533 1.676-1.3 2.042Zm5.616 1.75a.63.63 0 0 1-.625.625.63.63 0 0 1-.625-.625v-3.25a.63.63 0 0 1 .625-.625.63.63 0 0 1 .625.625v3.25Zm-.625-4.775a2.278 2.278 0 0 1-2.275-2.275c0-.902.533-1.676 1.3-2.042.2-.096.35-.287.35-.51V4.584a.63.63 0 0 1 .625-.625.63.63 0 0 1 .625.625v1.241c0 .223.15.414.351.51a2.26 2.26 0 0 1 1.291 2.041 2.27 2.27 0 0 1-2.267 2.267Z" fill="#C4C4C4"/></svg>