<svg width="20" height="20" fill="none" xmlns="http://www.w3.org/2000/svg"><path fill-rule="evenodd" clip-rule="evenodd" d="M15.556 5.716H13.3v-.768A2.448 2.448 0 0 0 10.852 2.5H9.364A2.438 2.438 0 0 0 6.9 4.932V5.7H4.644C3.46 5.7 2.5 6.66 2.5 7.844v1.872c.704.208 1.664.432 2.944.608v-.048c0-.736.592-1.328 1.328-1.328h.752c.736 0 1.328.592 1.328 1.328v.288c.4.016.816.016 1.248.016.432 0 .848 0 1.232-.016v-.288c0-.736.592-1.328 1.328-1.328h.752c.736 0 1.328.592 1.328 1.328v.064c1.28-.16 2.24-.384 2.944-.608V7.86a2.11 2.11 0 0 0-2.128-2.144Zm-6.816 0v-.768c0-.336.272-.608.608-.608h1.488c.336 0 .608.272.608.608v.768H8.74ZM14.756 11.892c0 .736-.592 1.328-1.328 1.328h-.752a1.325 1.325 0 0 1-1.328-1.328v-.32c-.4.016-.816.016-1.232.016-.432 0-.848 0-1.248-.016v.32c0 .736-.592 1.328-1.328 1.328h-.752a1.325 1.325 0 0 1-1.328-1.328v-.56c-1.232-.16-2.192-.352-2.944-.56v4.016c0 1.184.96 2.144 2.144 2.144h10.912c1.184 0 2.144-.96 2.144-2.144v-4.032c-.752.208-1.712.416-2.944.56v.576h-.016Z" fill="#C4C4C4"/><path fill-rule="evenodd" clip-rule="evenodd" d="M7.524 12.244c.192 0 .352-.16.352-.352v-1.6a.355.355 0 0 0-.352-.352h-.752a.355.355 0 0 0-.352.352v1.6c0 .192.16.352.352.352h.752ZM13.428 12.244c.192 0 .352-.16.352-.352v-1.6a.355.355 0 0 0-.352-.352h-.752a.355.355 0 0 0-.352.352v1.6c0 .192.16.352.352.352h.752Z" fill="#C4C4C4"/></svg>