<svg width="20" height="20" fill="none" xmlns="http://www.w3.org/2000/svg"><path d="M14.167 1.667H5.833c-2.3 0-4.166 1.858-4.166 4.15v5.816c0 2.292 1.866 4.15 4.166 4.15h1.25c.225 0 .525.15.667.334L9 17.775c.55.733 1.45.733 2 0l1.25-1.658a.845.845 0 0 1 .667-.334h1.25c2.3 0 4.166-1.858 4.166-4.15V5.817c0-2.292-1.866-4.15-4.166-4.15Zm-3.334 9.791h-5a.63.63 0 0 1-.625-.625.63.63 0 0 1 .625-.625h5a.63.63 0 0 1 .625.625.63.63 0 0 1-.625.625Zm3.334-4.166H5.833a.63.63 0 0 1-.625-.625.63.63 0 0 1 .625-.625h8.334a.63.63 0 0 1 .625.625.63.63 0 0 1-.625.625Z" fill="#C4C4C4"/></svg>