<svg width="18" height="18" fill="none" xmlns="http://www.w3.org/2000/svg"><path d="m9.746 1.782 1.392 2.519c.19.346.674.672 1.073.713l2.376.276c1.521.174 1.905 1.24.86 2.37l-1.782 1.915c-.298.32-.456.929-.341 1.345l.6 2.23c.472 1.762-.46 2.501-2.079 1.648l-2.261-1.193c-.412-.218-1.07-.18-1.46.072L5.949 15.08c-1.556 1.003-2.535.36-2.18-1.44l.453-2.28c.085-.425-.105-1.017-.423-1.306L1.896 8.322c-1.117-1.02-.805-2.121.697-2.445l2.345-.504c.396-.088.857-.45 1.021-.817l1.222-2.651C7.838.473 8.995.419 9.746 1.782Z" fill="#F5F6F7"/></svg>