<svg width="20" height="20" fill="none" xmlns="http://www.w3.org/2000/svg"><path d="M13.958 2.967v-1.3a.63.63 0 0 0-.625-.625.63.63 0 0 0-.625.625v1.25H7.292v-1.25a.63.63 0 0 0-.625-.625.63.63 0 0 0-.625.625v1.3c-2.25.208-3.342 1.55-3.509 3.541a.419.419 0 0 0 .417.442h14.1c.242 0 .442-.208.417-.442-.167-1.991-1.259-3.333-3.509-3.541ZM16.667 8.2H3.333a.836.836 0 0 0-.833.833v5.134c0 2.5 1.25 4.166 4.167 4.166h6.666c2.917 0 4.167-1.666 4.167-4.166V9.033a.836.836 0 0 0-.833-.833Zm-8.992 6.975c-.042.033-.083.075-.125.1a.634.634 0 0 1-.15.075.529.529 0 0 1-.15.05c-.058.008-.108.017-.167.017a.829.829 0 0 1-.316-.067.86.86 0 0 1-.275-.175.876.876 0 0 1-.242-.592c0-.216.092-.433.242-.591a.859.859 0 0 1 .275-.175.796.796 0 0 1 .633 0c.05.016.1.041.15.075l.125.1c.15.158.242.375.242.591a.876.876 0 0 1-.242.592Zm0-2.917a.876.876 0 0 1-.592.242.876.876 0 0 1-.591-.242.876.876 0 0 1-.242-.591c0-.217.092-.434.242-.592A.832.832 0 0 1 7.4 10.9c.108.042.2.1.275.175.15.158.242.375.242.592a.876.876 0 0 1-.242.591Zm2.917 2.917a.876.876 0 0 1-.592.242.876.876 0 0 1-.592-.242.876.876 0 0 1-.241-.592c0-.216.091-.433.241-.591.309-.309.875-.309 1.184 0 .15.158.241.375.241.591a.876.876 0 0 1-.241.592Zm0-2.917-.125.1a.626.626 0 0 1-.15.075.529.529 0 0 1-.15.05c-.059.009-.109.017-.167.017a.876.876 0 0 1-.592-.242.876.876 0 0 1-.241-.591c0-.217.091-.434.241-.592a.778.778 0 0 1 .275-.175.833.833 0 0 1 .909.175c.15.158.241.375.241.592a.876.876 0 0 1-.241.591Zm2.916 2.917a.876.876 0 0 1-.591.242.876.876 0 0 1-.592-.242.876.876 0 0 1-.242-.592c0-.216.092-.433.242-.591.308-.309.875-.309 1.183 0 .15.158.242.375.242.591a.876.876 0 0 1-.242.592Zm0-2.917-.125.1a.626.626 0 0 1-.15.075.529.529 0 0 1-.15.05 1.24 1.24 0 0 1-.166.017.876.876 0 0 1-.592-.242.876.876 0 0 1-.242-.591c0-.217.092-.434.242-.592a.86.86 0 0 1 .275-.175.797.797 0 0 1 .633 0c.05.017.1.042.15.075l.125.1c.15.158.242.375.242.592a.876.876 0 0 1-.242.591Z" fill="#C4C4C4"/></svg>