<svg width="20" height="20" fill="none" xmlns="http://www.w3.org/2000/svg"><path d="M12.5 18.958a.621.621 0 0 1-.533-.942l.875-1.458a.624.624 0 0 1 .858-.216c.3.175.392.558.217.858l-.225.375c2.3-.542 4.025-2.608 4.025-5.075a.63.63 0 0 1 .625-.625.63.63 0 0 1 .625.625c-.009 3.558-2.909 6.458-6.467 6.458ZM1.667 8.125a.63.63 0 0 1-.625-.625c0-3.558 2.9-6.458 6.458-6.458a.621.621 0 0 1 .533.942L7.158 3.45a.622.622 0 0 1-.858.208.622.622 0 0 1-.208-.858l.225-.375A5.218 5.218 0 0 0 2.292 7.5a.63.63 0 0 1-.625.625ZM8.892 11.542l-2.617-1.409a.923.923 0 0 0-.883 0l-2.617 1.409a.596.596 0 0 0-.308.533c0 .225.116.433.308.533l2.617 1.409a.935.935 0 0 0 .441.108c.15 0 .3-.033.442-.108l2.617-1.409a.596.596 0 0 0 .308-.533.623.623 0 0 0-.308-.533ZM4.958 14.508l-2.433-1.216a.606.606 0 0 0-.583.025.61.61 0 0 0-.275.508v2.3c0 .4.216.758.575.933l2.433 1.217a.73.73 0 0 0 .267.058.598.598 0 0 0 .6-.6v-2.3c0-.391-.225-.75-.584-.925ZM9.717 13.317a.604.604 0 0 0-.584-.025L6.7 14.508a1.026 1.026 0 0 0-.575.934v2.3c0 .208.108.4.283.508.1.05.209.083.317.083a.602.602 0 0 0 .267-.066l2.433-1.217c.358-.175.575-.533.575-.933v-2.3c0-.2-.108-.392-.283-.5ZM17.225 3.192l-2.617-1.409a.923.923 0 0 0-.883 0l-2.617 1.409a.596.596 0 0 0-.308.533c0 .225.117.433.308.533l2.617 1.409a.935.935 0 0 0 .442.108c.15 0 .3-.033.441-.108l2.617-1.409a.596.596 0 0 0 .308-.533.603.603 0 0 0-.308-.533ZM13.292 6.15l-2.434-1.217a.606.606 0 0 0-.583.025.61.61 0 0 0-.275.509v2.3c0 .4.217.758.575.933l2.433 1.217a.602.602 0 0 0 .267.066.598.598 0 0 0 .6-.6v-2.3c0-.4-.225-.758-.583-.933ZM18.05 4.958a.604.604 0 0 0-.583-.025L15.033 6.15a1.026 1.026 0 0 0-.575.933v2.3a.598.598 0 0 0 .867.534L17.758 8.7c.359-.183.575-.542.575-.933v-2.3c0-.209-.108-.4-.283-.509Z" fill="#C4C4C4"/></svg>