<svg width="20" height="20" fill="none" xmlns="http://www.w3.org/2000/svg"><path d="M17.492 8.092c-.284-.117-.659-.175-1.125-.175h-4.4C10.517 7.917 10 8.433 10 9.9v6.45c0 .483.058.858.183 1.15.259.6.809.833 1.784.833h4.4c1.45 0 1.966-.525 1.966-1.983V9.9c0-.992-.233-1.55-.841-1.808ZM15 16.458h-1.667c-.016 0-.041 0-.058-.008a.517.517 0 0 1-.325-.133.589.589 0 0 1-.242-.484.63.63 0 0 1 .625-.625H15a.63.63 0 0 1 .625.625.63.63 0 0 1-.625.625Z" fill="#C4C4C4"/><path d="M17.492 5.158v.675a.836.836 0 0 1-.834.834h-4.691C9.833 6.667 8.75 7.758 8.75 9.9v7.6a.836.836 0 0 1-.833.833H6.292a.596.596 0 0 1-.6-.591.59.59 0 0 1 .6-.592h1.625v-3.192H5a3.497 3.497 0 0 1-3.325-3.491V5.158a3.498 3.498 0 0 1 3.5-3.491H14a3.496 3.496 0 0 1 3.492 3.491Z" fill="#C4C4C4"/></svg>