<svg width="24" height="24" fill="none" xmlns="http://www.w3.org/2000/svg"><circle cx="12" cy="12" r="10" fill="#C4C4C4"/><path d="M10.797 13.143c0-.525.401-1.13 1.203-1.817.355-.31.594-.552.716-.724.122-.182.183-.391.183-.627 0-.29-.092-.525-.275-.707a.931.931 0 0 0-.685-.274c-.558 0-.98.408-1.264 1.222L9 9.444c.213-.793.579-1.399 1.096-1.817C10.624 7.21 11.26 7 12 7c.853 0 1.563.263 2.132.788.579.525.868 1.2.868 2.026 0 .44-.096.837-.29 1.19-.192.354-.517.74-.974 1.158-.457.418-.751.708-.883.869a.882.882 0 0 0-.183.546c0 .054.01.167.03.338h-1.736a2.004 2.004 0 0 1-.167-.772Zm-.335 3.361c0-.418.137-.772.411-1.061.274-.29.614-.434 1.02-.434a1.3 1.3 0 0 1 1.005.434c.275.29.412.643.412 1.061 0 .43-.137.788-.412 1.078a1.325 1.325 0 0 1-1.005.418c-.406 0-.746-.14-1.02-.418-.274-.29-.411-.649-.411-1.078Z" fill="#fff"/></svg>