<svg width="58" height="58" fill="none" xmlns="http://www.w3.org/2000/svg"><path d="m30.843 8.495 3.905 7.068c.535.97 1.89 1.884 3.011 2l6.667.776c4.268.487 5.345 3.481 2.41 6.651l-4.999 5.37c-.834.9-1.278 2.608-.955 3.775l1.683 6.26c1.324 4.942-1.29 7.017-5.833 4.622l-6.346-3.347c-1.155-.612-3-.506-4.097.201l-6.1 3.94c-4.368 2.817-7.117 1.01-6.12-4.042l1.273-6.393c.238-1.195-.294-2.856-1.19-3.667l-5.339-4.862c-3.133-2.865-2.258-5.953 1.957-6.862l6.582-1.413c1.11-.248 2.404-1.265 2.863-2.293l3.429-7.44c1.844-4.017 5.09-4.17 7.199-.344Z" fill="#67788A"/></svg>